<svg width="386" height="363" viewBox="0 0 386 363" fill="none" xmlns="http://www.w3.org/2000/svg">
<path d="M314.881 183.406C314.881 110.308 255.585 51.0511 182.44 51.0511C109.296 51.0511 50 110.308 50 183.406C50 256.503 109.296 315.76 182.44 315.76C255.585 315.76 314.881 256.503 314.881 183.406Z" fill="#7B4AE2" fill-opacity="0.2"/>
<g filter="url(#filter0_d_5_132)">
<circle cx="317.18" cy="194.397" r="18.3945" fill="#090E16"/>
</g>
<g clip-path="url(#clip0_5_132)">
<path fill-rule="evenodd" clip-rule="evenodd" d="M324.94 185.2H309.42C308.626 185.2 307.983 185.843 307.983 186.637V202.157C307.983 202.951 308.626 203.594 309.42 203.594H324.94C325.734 203.594 326.377 202.951 326.377 202.157V186.637C326.377 185.843 325.734 185.2 324.94 185.2ZM318.798 201.589V199.604C319.158 199.906 319.549 200.133 319.971 200.283C320.393 200.434 320.819 200.51 321.25 200.51C321.502 200.51 321.723 200.487 321.911 200.442C322.099 200.396 322.256 200.333 322.383 200.253C322.509 200.172 322.603 200.077 322.665 199.967C322.727 199.858 322.758 199.739 322.758 199.611C322.758 199.437 322.708 199.282 322.609 199.145C322.51 199.009 322.374 198.883 322.203 198.767C322.031 198.651 321.827 198.54 321.591 198.432C321.355 198.325 321.101 198.215 320.828 198.104C320.133 197.814 319.614 197.461 319.273 197.043C318.932 196.625 318.761 196.121 318.761 195.53C318.761 195.067 318.854 194.669 319.04 194.336C319.226 194.003 319.48 193.729 319.801 193.514C320.121 193.299 320.493 193.141 320.915 193.04C321.337 192.939 321.784 192.888 322.255 192.888C322.719 192.888 323.129 192.916 323.487 192.972C323.845 193.027 324.175 193.113 324.477 193.229V195.083C324.328 194.98 324.166 194.889 323.99 194.81C323.814 194.732 323.633 194.667 323.447 194.615C323.261 194.563 323.076 194.525 322.891 194.5C322.707 194.476 322.533 194.463 322.367 194.463C322.139 194.463 321.933 194.485 321.746 194.528C321.56 194.572 321.403 194.633 321.275 194.711C321.146 194.79 321.047 194.884 320.977 194.993C320.906 195.103 320.871 195.226 320.871 195.362C320.871 195.511 320.91 195.645 320.989 195.762C321.068 195.88 321.179 195.992 321.324 196.097C321.469 196.203 321.645 196.306 321.852 196.407C322.059 196.509 322.293 196.613 322.553 196.721C322.909 196.869 323.229 197.028 323.512 197.195C323.796 197.363 324.039 197.552 324.241 197.763C324.444 197.973 324.599 198.214 324.707 198.485C324.815 198.756 324.868 199.071 324.868 199.431C324.868 199.927 324.774 200.343 324.586 200.68C324.398 201.017 324.142 201.29 323.819 201.499C323.497 201.708 323.121 201.858 322.693 201.949C322.265 202.04 321.813 202.085 321.337 202.085C320.848 202.085 320.384 202.044 319.943 201.961C319.503 201.878 319.121 201.754 318.798 201.589ZM318.042 194.666H315.49V201.941H313.468V194.666H310.929V193.032H318.042V194.666Z" fill="#7242B3"/>
</g>
<g filter="url(#filter1_d_5_132)">
<circle cx="280.395" cy="103.395" r="18.3945" fill="#090E16"/>
</g>
<path d="M280.195 97.678C277.743 97.678 276.21 98.9416 275.597 101.469C276.517 100.205 277.59 99.7313 278.816 100.047C279.515 100.227 280.015 100.75 280.569 101.329C281.47 102.273 282.514 103.364 284.792 103.364C287.244 103.364 288.777 102.101 289.39 99.5734C288.47 100.837 287.398 101.311 286.172 100.995C285.472 100.815 284.972 100.292 284.419 99.7127C283.517 98.7695 282.474 97.678 280.195 97.678Z" fill="#7242B3"/>
<path d="M275.597 103.364C273.146 103.364 271.613 104.628 271 107.155C271.919 105.891 272.992 105.417 274.218 105.733C274.918 105.914 275.418 106.437 275.971 107.015C276.873 107.959 277.916 109.05 280.195 109.05C282.647 109.05 284.18 107.787 284.792 105.259C283.873 106.523 282.8 106.997 281.574 106.681C280.875 106.501 280.375 105.978 279.821 105.399C278.92 104.456 277.876 103.364 275.597 103.364Z" fill="#7242B3"/>
<g filter="url(#filter2_d_5_132)">
<circle cx="68.3945" cy="147.491" r="18.3945" fill="#090E16"/>
</g>
<path d="M75.2762 144.256C75.0617 144.182 74.8395 144.112 74.6106 144.046C74.6483 143.892 74.6828 143.741 74.7135 143.592C75.2173 141.146 74.8879 139.176 73.7631 138.528C72.6845 137.906 70.9206 138.554 69.1392 140.105C68.9679 140.254 68.7961 140.411 68.6244 140.577C68.51 140.467 68.3957 140.362 68.2818 140.261C66.4148 138.603 64.5434 137.904 63.4197 138.555C62.3422 139.179 62.0231 141.031 62.4766 143.348C62.5204 143.572 62.5716 143.801 62.6295 144.033C62.3646 144.108 62.1089 144.188 61.8643 144.274C59.6754 145.037 58.2775 146.233 58.2775 147.473C58.2775 148.755 59.7782 150.04 62.058 150.819C62.238 150.881 62.4246 150.939 62.617 150.994C62.5546 151.245 62.5003 151.492 62.4547 151.732C62.0223 154.009 62.36 155.818 63.4346 156.438C64.5446 157.078 66.4075 156.42 68.2215 154.834C68.3649 154.709 68.5088 154.576 68.6529 154.436C68.8398 154.616 69.0263 154.787 69.2119 154.946C70.9689 156.458 72.7043 157.069 73.778 156.447C74.8869 155.805 75.2473 153.863 74.7794 151.499C74.7437 151.319 74.7021 151.134 74.6554 150.947C74.7862 150.908 74.9146 150.868 75.0399 150.827C77.41 150.041 78.9521 148.772 78.9521 147.473C78.9521 146.228 77.5091 145.024 75.2762 144.256ZM74.7621 149.988C74.6491 150.026 74.5331 150.062 74.4149 150.097C74.1532 149.269 73.8001 148.388 73.3679 147.478C73.7803 146.589 74.1198 145.72 74.3741 144.897C74.5856 144.958 74.7909 145.023 74.9887 145.091C76.9019 145.749 78.0689 146.723 78.0689 147.473C78.0689 148.273 76.8085 149.31 74.7621 149.988ZM73.913 151.671C74.1199 152.716 74.1494 153.661 74.0124 154.4C73.8892 155.063 73.6416 155.506 73.3354 155.683C72.6839 156.06 71.2905 155.57 69.7879 154.277C69.6156 154.129 69.4421 153.97 69.268 153.803C69.8506 153.166 70.4328 152.425 71.001 151.602C72.0005 151.514 72.9448 151.369 73.8011 151.171C73.8432 151.341 73.8807 151.508 73.913 151.671ZM65.326 155.618C64.6894 155.843 64.1824 155.849 63.8759 155.672C63.2238 155.296 62.9527 153.844 63.3225 151.897C63.3648 151.674 63.4152 151.445 63.4733 151.21C64.3203 151.398 65.2576 151.532 66.2595 151.614C66.8315 152.419 67.4306 153.158 68.0343 153.806C67.9024 153.934 67.771 154.055 67.6403 154.169C66.8382 154.87 66.0344 155.368 65.326 155.618ZM62.3437 149.983C61.3356 149.639 60.503 149.191 59.9324 148.702C59.4196 148.263 59.1607 147.827 59.1607 147.473C59.1607 146.721 60.2831 145.76 62.155 145.108C62.3821 145.029 62.6199 144.954 62.8667 144.884C63.1254 145.725 63.4647 146.605 63.8743 147.495C63.4594 148.398 63.1152 149.292 62.854 150.143C62.6781 150.093 62.5077 150.039 62.3437 149.983ZM63.3434 143.179C62.9548 141.193 63.2129 139.695 63.8622 139.319C64.5539 138.919 66.0833 139.49 67.6954 140.921C67.7984 141.012 67.9018 141.108 68.0056 141.207C67.4049 141.852 66.8113 142.587 66.2443 143.387C65.272 143.477 64.3413 143.622 63.4855 143.816C63.4317 143.599 63.384 143.386 63.3434 143.179ZM72.2614 145.381C72.0569 145.027 71.8469 144.682 71.6327 144.347C72.2924 144.43 72.9244 144.541 73.5179 144.676C73.3397 145.247 73.1176 145.844 72.8562 146.457C72.6687 146.101 72.4703 145.742 72.2614 145.381ZM68.6247 141.838C69.0321 142.28 69.44 142.773 69.8413 143.307C69.4369 143.288 69.0276 143.278 68.6148 143.278C68.206 143.278 67.7996 143.288 67.3977 143.307C67.7994 142.777 68.2109 142.285 68.6247 141.838ZM64.9646 145.387C64.7603 145.741 64.5656 146.098 64.381 146.456C64.1238 145.846 63.9038 145.246 63.724 144.667C64.3139 144.535 64.9429 144.427 65.5984 144.345C65.3813 144.684 65.1695 145.031 64.9646 145.387V145.387ZM65.6173 150.665C64.9401 150.589 64.3016 150.487 63.7119 150.358C63.8945 149.769 64.1193 149.156 64.382 148.533C64.5671 148.891 64.7625 149.248 64.9681 149.603H64.9681C65.1776 149.965 65.3946 150.319 65.6173 150.665ZM68.6491 153.171C68.2305 152.719 67.813 152.219 67.4052 151.682C67.801 151.698 68.2046 151.705 68.6148 151.705C69.0362 151.705 69.4528 151.696 69.8628 151.678C69.4602 152.225 69.0537 152.725 68.6491 153.171ZM72.8646 148.501C73.141 149.131 73.3739 149.741 73.5589 150.32C72.9594 150.457 72.3122 150.567 71.6303 150.649C71.8449 150.309 72.0568 149.958 72.265 149.597C72.4756 149.232 72.6756 148.866 72.8646 148.501ZM71.4999 149.156C71.1768 149.716 70.845 150.251 70.5081 150.756C69.8946 150.8 69.2608 150.822 68.6148 150.822C67.9714 150.822 67.3456 150.802 66.743 150.763C66.3925 150.252 66.0535 149.715 65.7324 149.16H65.7325C65.4122 148.607 65.1174 148.049 64.8503 147.495C65.1174 146.939 65.4114 146.38 65.7298 145.828L65.7297 145.828C66.049 145.274 66.385 144.74 66.7322 144.232C67.3471 144.186 67.9776 144.161 68.6148 144.161H68.6148C69.2549 144.161 69.8862 144.186 70.5009 144.233C70.8428 144.737 71.1765 145.27 71.497 145.823C71.8212 146.383 72.119 146.938 72.3883 147.482C72.1198 148.036 71.8227 148.596 71.4999 149.156ZM73.3219 139.293C74.0142 139.692 74.2834 141.302 73.8485 143.414C73.8207 143.548 73.7895 143.686 73.7555 143.825C72.8978 143.627 71.9664 143.48 70.9912 143.388C70.4231 142.579 69.8344 141.844 69.2435 141.207C69.4024 141.054 69.561 140.908 69.719 140.771C71.2453 139.442 72.6719 138.918 73.3219 139.293ZM68.6148 145.627C69.6344 145.627 70.461 146.454 70.461 147.473C70.461 148.493 69.6344 149.32 68.6148 149.32C67.5952 149.32 66.7686 148.493 66.7686 147.473C66.7686 146.454 67.5952 145.627 68.6148 145.627Z" fill="#7242B3"/>
<g filter="url(#filter3_d_5_132)">
<circle cx="68.3945" cy="265.395" r="18.3945" fill="#090E16"/>
</g>
<path fill-rule="evenodd" clip-rule="evenodd" d="M73.4959 256H76.7996V259.415L75.5888 259.43L74.131 264.367C74.1879 265.461 73.8612 265.879 73.5819 266.237C73.4161 266.449 73.2672 266.64 73.2251 266.938C72.9414 268.948 70.6939 270.592 69.8346 270.592C69.2615 270.576 68.8425 269.919 68.7018 269.346C70.3177 267.559 72.4906 266.155 72.4906 266.155C72.5234 265.927 72.5309 265.737 72.5375 265.569C72.5582 265.041 72.5707 264.722 73.331 264.114L74.288 259.083C74.0962 258.956 73.9283 258.859 73.7852 258.777C73.3186 258.509 73.1144 258.392 73.1965 257.871L73.4959 256ZM59 268.167V271.882L65.7187 266.156C64.461 267.201 63.1653 266.147 62.9538 264.948L59 268.167ZM59 272.95V273.8H62.1679C63.1181 273.481 65.953 270.935 69.1819 268.035C69.6731 267.594 70.1734 267.145 70.6775 266.694C70.7671 266.194 70.7183 265.986 70.6737 265.787C68.7966 267.936 67.5859 267.892 66.748 266.204C66.1566 266.705 65.5178 267.242 64.8692 267.788C62.2228 270.013 59.4138 272.376 59 272.95ZM63.4642 273.8H69.1067C70.8871 272.213 72.2194 270.934 72.3913 269.473C70.5006 271.391 69.0422 271.662 68.221 269.793L63.4642 273.8ZM63.4635 264.547C63.394 265.422 64.1631 266.067 64.688 266.067C65.2136 266.042 67.2606 264.317 67.2606 264.317C68.2234 263.1 68.2276 262.558 68.2276 262.133C68.1473 260.254 64.7243 263.116 63.4635 264.547ZM71.931 263.82C72.3957 262.836 71.7705 261.744 70.4108 262.703C69.6621 263.179 68.7605 264.004 68.0548 264.649C67.742 264.935 67.4676 265.186 67.262 265.356C66.9515 265.983 67.7387 267.704 68.9861 266.795C70.4604 265.724 71.537 264.717 71.931 263.82Z" fill="#7242B3"/>
<rect x="58.5" y="255.5" width="19.39" height="19.39" stroke="#8B65BF" stroke-linejoin="round"/>
<g filter="url(#filter4_f_5_132)">
<circle cx="183.36" cy="181.061" r="131.061" fill="#8B65BF" fill-opacity="0.2"/>
</g>
<g filter="url(#filter5_i_5_132)">
<path fill-rule="evenodd" clip-rule="evenodd" d="M159.224 232.077C178.104 242.14 199.275 241.022 215.863 232.076V254.122L216.051 254.117V267.061H159.224V232.077Z" fill="#BB7D52"/>
<path fill-rule="evenodd" clip-rule="evenodd" d="M159.223 250.446C178.103 260.51 199.275 259.392 215.863 250.446V264.505L228.619 264.187L228.778 264.193C228.778 298.08 147.764 303.152 147.764 264.142L148.08 264.128L159.223 264.184V250.446Z" fill="#D08B5B"/>
<path fill-rule="evenodd" clip-rule="evenodd" d="M126.057 111.177C171.113 82.4888 228.754 92.6905 248.228 111.608C253.859 125.156 254.257 138.225 252.6 152.253C256.404 149.523 260.927 150.148 264.491 152.69C265.935 164.33 269.802 187.357 252.471 188.356C246.505 262.635 137.179 271.881 122.401 188.599C105.224 188.006 109.856 164.735 110.929 153.559C115.05 150.424 119.756 152.002 122.677 153.404L126.057 111.177Z" fill="#D08B5B"/>
<path fill-rule="evenodd" clip-rule="evenodd" d="M172.368 53.4018L168.641 55.8253L166.748 53.9929C163.79 51.0968 162.371 51.6288 160.123 56.4164C158.762 59.3716 157.047 59.7265 154.089 57.7757C152.906 56.9484 151.427 56.239 150.836 56.239C149.534 56.239 148.292 58.2485 147.759 60.9083C147.346 63.0953 145.926 65.1049 144.743 65.1049C144.329 65.1049 142.79 64.5729 141.312 63.9227C139.063 62.9179 138.354 62.8587 137.111 63.3907C135.692 64.041 135.573 64.3955 135.573 68.2966C135.573 71.1339 135.159 73.3208 134.39 74.9759C133.266 77.4582 133.207 77.5174 130.427 77.5174C125.813 77.5174 123.624 79.8223 125.872 82.3642C127.055 83.6052 126.286 84.9057 123.979 85.4376C119.72 86.5015 118.477 89.2205 120.784 92.1165C122.382 94.1852 122.323 94.4809 119.779 95.6631C117.117 96.9633 116.703 98.4412 118.418 100.273C119.72 101.692 119.72 101.751 119.01 109.553C118.3 117.119 118.537 138.22 119.365 140.407C119.601 141.057 118.832 141.707 116.525 142.89C111.674 145.313 111.32 145.786 111.32 149.687C111.32 154.711 112.089 156.011 115.402 156.484C118.773 156.957 120.903 157.725 121.495 158.671C121.731 159.085 121.968 160.976 121.968 162.927C121.968 167.123 123.269 173.034 124.866 176.107C129.362 184.855 141.075 189.288 155.273 187.633C162.253 186.746 166.335 185.387 170.771 182.432C177.397 177.999 180.473 172.324 180.946 163.399C181.301 157.962 181.301 157.962 183.076 157.371C185.383 156.543 191.121 156.543 193.487 157.371C195.321 158.021 195.321 158.021 195.321 162.218C195.321 167.064 196.563 172.857 198.22 176.108C202.716 184.856 214.428 189.288 228.567 187.634C235.606 186.747 239.688 185.387 244.125 182.432C250.75 177.999 253.826 172.148 254.418 162.986C254.832 156.957 254.536 157.253 261.043 156.425C264.356 156.011 265.125 154.711 265.125 149.628C265.125 145.609 264.474 144.84 258.973 142.476L255.66 141.057V135.147C255.601 125.04 255.485 113.805 253 111.5C252.172 110.732 251.479 112.684 250 111.975C247.693 110.852 243 108.5 241.238 107.933C240.528 108.642 243.533 113.869 245.308 117.415C247.496 121.789 249.448 129.177 250.099 135.561L250.513 139.462L246.727 138.634C244.657 138.221 241.995 137.866 240.871 137.807C239.688 137.807 236.73 136.743 233.772 135.265C228.862 132.842 228.626 132.783 222.829 132.783C216.203 132.783 211.529 134.142 207.744 137.097C206.62 137.984 204.253 139.107 202.597 139.521C200.882 139.935 197.687 141.058 195.498 142.003C189.76 144.427 186.803 144.309 179.467 141.353C176.273 140.053 173.256 138.989 172.842 138.989C172.428 138.989 171.067 138.161 169.825 137.157C165.921 134.083 161.543 132.783 154.799 132.783C149.061 132.783 148.706 132.901 143.619 135.324C140.188 136.979 137.526 137.807 135.928 137.807C134.627 137.866 131.788 138.221 129.658 138.693C123.624 139.994 124.097 140.762 124.57 130.832C124.926 122.321 126.049 115.11 127.351 112.627C128.83 109.849 140.543 103.879 152.137 99.9786C166.512 95.191 182.662 93.3585 200.882 94.5999C216.499 95.6047 220.64 96.9048 237.913 106.185C244 109 249.567 112.036 250.868 112.214C252.998 112.509 253.175 112.391 253.826 110.617C255.246 106.539 254.122 96.2546 251.756 91.5852C249.981 88.1572 249.863 86.8567 250.868 83.3105C251.578 80.8278 254 76.9861 253 77.5C251.5 77.518 249.271 77.518 246.905 77.518C245.367 77.5772 243.001 77.8134 241.64 78.05C239.215 78.5228 239.155 78.5228 239.451 76.9861C242 68 244.5 66.5 233.476 71.3708C231.643 71.8436 229.927 72.1393 229.809 71.9619C229.631 71.7848 229.809 70.0115 230.223 68.0611C230.932 64.8693 231.415 63.2734 232 61.5C231 61.5 228.626 62.6232 225.194 63.2734C219.693 64.3965 217.622 63.8645 215.611 60.7907C213.541 57.7764 210.952 56.2318 209 57C207.5 56.5 204.307 55.8848 203.87 55.8848C201.621 54.9392 198.511 54.7029 196.5 54.9983C194.43 55.3532 191.952 54.5048 190 53.5C187.989 52.4952 187.709 52.3977 185.284 52.693C182.5 52 184 52.5 180.5 51.5C178.607 50.5544 180.328 52.0591 179.5 52C178.5 51 174.439 52.0421 172.368 53.4018ZM166.689 148.032C173.788 150.337 175.977 153.47 176.036 161.39C176.095 165.586 175.858 166.946 174.735 169.251C170.83 177.23 159.709 181.723 146.517 180.718C136.402 179.89 131.196 177.053 128.416 170.788C126.641 166.709 126.404 156.957 128.061 153.942C129.599 151.105 132.556 149.155 137.407 147.854C141.193 146.85 143.264 146.731 152.728 146.85C160.892 147.027 164.441 147.322 166.689 148.032ZM240.042 148.032C247.141 150.337 249.33 153.47 249.389 161.39C249.448 165.586 249.211 166.946 248.088 169.251C244.183 177.23 233.062 181.723 219.87 180.718C209.755 179.89 204.549 177.053 201.769 170.788C199.994 166.709 199.757 156.957 201.414 153.942C202.952 151.105 205.909 149.155 210.76 147.854C214.546 146.85 216.617 146.731 226.082 146.85C234.245 147.027 237.794 147.322 240.042 148.032Z" fill="#2C1B18"/>
<path fill-rule="evenodd" clip-rule="evenodd" d="M147.641 155.184C144.506 156.661 140.897 160.385 140.897 162.158C140.897 163.518 141.844 163.518 143.678 162.04C148.469 158.257 158.644 158.257 163.85 161.981C164.855 162.631 165.92 163.222 166.275 163.222C167.517 163.222 166.926 161.094 165.033 158.848C162.548 155.775 158.112 153.765 153.911 153.765C151.723 153.765 149.652 154.238 147.641 155.183V155.184Z" fill="#533824"/>
<path fill-rule="evenodd" clip-rule="evenodd" d="M216.262 155.184C213.127 156.661 209.518 160.385 209.518 162.158C209.518 163.518 210.464 163.518 212.298 162.04C217.09 158.257 227.265 158.257 232.471 161.981C233.476 162.631 234.541 163.222 234.896 163.222C236.138 163.222 235.547 161.094 233.654 158.848C231.169 155.775 226.733 153.765 222.532 153.765C220.344 153.765 218.273 154.238 216.262 155.183L216.262 155.184Z" fill="#533824"/>
<path fill-rule="evenodd" clip-rule="evenodd" d="M174.439 183.437C175.09 185.978 176.982 187.988 180.295 189.584C182.957 190.884 184.318 191.18 188.222 191.18C192.126 191.18 193.487 190.884 196.149 189.584C199.462 187.988 201.354 185.979 202.005 183.437L202.301 182.137H188.222H174.143L174.439 183.437Z" fill="#AF754C"/>
<path fill-rule="evenodd" clip-rule="evenodd" d="M119.365 140.407C119.601 141.057 118.832 141.707 116.525 142.89C111.75 145.274 111.332 145.771 111.32 149.506V149.687C111.32 154.711 112.089 156.011 115.401 156.484C118.773 156.957 120.903 157.725 121.495 158.671C121.731 159.085 121.968 160.976 121.968 162.926C121.968 167.123 123.269 173.034 124.867 176.107C129.363 184.855 141.075 189.288 155.272 187.633C162.253 186.746 166.335 185.387 170.771 182.432C177.397 177.999 180.473 172.325 180.946 163.4C181.301 157.962 181.301 157.962 183.076 157.37C185.383 156.543 191.121 156.543 193.488 157.37C195.321 158.021 195.321 158.021 195.321 162.218C195.321 167.064 196.563 172.857 198.219 176.108C202.715 184.855 214.428 189.288 228.567 187.633C235.606 186.747 239.688 185.387 244.125 182.432C250.75 178 253.826 172.148 254.418 162.986C254.832 156.957 254.536 157.253 261.043 156.425C264.356 156.011 265.125 154.711 265.125 149.628C265.125 145.609 264.474 144.841 258.973 142.476L255.66 141.057L250.513 139.462L246.727 138.634C244.657 138.221 241.995 137.866 240.871 137.807C239.688 137.807 236.73 136.743 233.773 135.265C228.862 132.842 228.626 132.783 222.829 132.783C216.203 132.783 211.53 134.142 207.743 137.098C206.62 137.984 204.253 139.107 202.597 139.521C200.881 139.935 197.687 141.058 195.498 142.003C189.76 144.427 186.803 144.309 179.467 141.353C176.273 140.053 173.256 138.989 172.842 138.989C172.427 138.989 171.067 138.162 169.825 137.157C165.921 134.083 161.543 132.783 154.799 132.783C149.061 132.783 148.706 132.901 143.619 135.325C140.188 136.98 137.526 137.807 135.928 137.807C134.627 137.866 131.787 138.221 129.658 138.693L119.365 140.407ZM166.689 148.032C173.788 150.337 175.976 153.47 176.035 161.39C176.095 165.587 175.859 166.946 174.735 169.251C170.83 177.23 159.709 181.723 146.517 180.717C136.402 179.89 131.196 177.053 128.416 170.788C126.641 166.709 126.404 156.957 128.06 153.942C129.599 151.105 132.557 149.155 137.407 147.855C141.193 146.85 143.264 146.732 152.728 146.85C160.892 147.027 164.441 147.323 166.689 148.032ZM240.042 148.032C247.141 150.337 249.33 153.47 249.389 161.39C249.448 165.587 249.211 166.946 248.088 169.251C244.183 177.23 233.062 181.723 219.87 180.717C209.755 179.89 204.549 177.053 201.768 170.788C199.994 166.709 199.758 156.957 201.414 153.942C202.952 151.105 205.909 149.155 210.76 147.855C214.546 146.85 216.616 146.732 226.081 146.85C234.245 147.027 237.794 147.323 240.042 148.032Z" fill="#090E16"/>
<path fill-rule="evenodd" clip-rule="evenodd" d="M171.717 207.198C172.487 212.103 176.213 217.128 180.828 219.492C184.199 221.265 190.411 221.62 193.96 220.26C199.284 218.192 203.899 212.635 204.727 207.198H171.717Z" fill="#3E291B"/>
<path fill-rule="evenodd" clip-rule="evenodd" d="M171.212 194.877C170.311 195.204 168.1 196.268 166.298 197.291C164.496 198.272 162.448 199.337 161.752 199.623C160.319 200.196 156.101 200.359 154.75 199.909C153.972 199.663 153.808 199.745 153.808 200.523C153.808 201.791 156.47 204.164 159.377 205.556C163.145 207.356 168.059 206.988 174.202 204.41C176.573 203.712 180.002 201.841 182.76 200.891C188.835 198.745 191.939 199.977 197.42 202.323L202.211 204.41C208.354 206.988 213.268 207.356 217.036 205.556C219.984 204.164 222.727 201.669 222.523 200.605C222.441 200.196 222.072 199.95 221.745 200.032C221.417 200.114 219.902 200.155 218.346 200.155C215.889 200.114 215.152 199.909 212.203 198.395C204.218 194.222 205.365 194.549 199.468 194.549C194.759 194.549 193.816 194.713 191.196 195.654L188.206 196.718L185.258 195.654C181.654 194.385 173.996 193.976 171.212 194.877Z" fill="#2C1B18"/>
<path d="M209.093 321.217L212.892 318.131C213.772 317.416 215.066 317.549 215.782 318.428C216.498 319.308 216.364 320.601 215.484 321.316L213.645 322.809L226.993 334.046C227.873 334.761 228.007 336.054 227.291 336.933C226.885 337.432 226.293 337.691 225.696 337.691C225.241 337.691 224.782 337.541 224.401 337.231L209.093 324.402C208.614 324.012 208.335 323.427 208.335 322.809C208.335 322.191 208.614 321.606 209.093 321.217Z" fill="#7B4AE2"/>
<path d="M225.962 302.36C227.052 302.369 227.93 303.26 227.921 304.349L227.751 335.733C227.742 336.823 226.851 337.7 225.76 337.691C225.484 337.689 225.222 337.63 224.984 337.526C224.282 337.219 223.795 336.516 223.801 335.702L223.971 304.318C223.98 303.228 224.871 302.352 225.962 302.36Z" fill="#7B4AE2"/>
<path d="M234.631 323.949L236.034 322.809L231.037 318.749C230.157 318.034 230.023 316.742 230.739 315.862C231.455 314.983 232.749 314.849 233.629 315.564L240.586 321.217C241.066 321.606 241.344 322.191 241.344 322.809C241.344 323.427 241.066 324.012 240.586 324.402L237.223 327.134C236.842 327.443 236.384 327.594 235.928 327.594C235.331 327.594 234.739 327.335 234.333 326.836C233.617 325.957 233.751 324.664 234.631 323.949Z" fill="#C83267"/>
<path fill-rule="evenodd" clip-rule="evenodd" d="M147.404 264.163C129.953 265.861 114.1 272.36 100.908 283.192C89.5564 292.474 86.3895 299.851 78.0787 310.357C95.0119 327.91 117.782 342.783 142.613 350.998C159.176 356.443 170.475 358.2 188.222 358.2C205.969 358.2 217.267 356.443 233.831 350.998C258.882 342.993 279.983 329.876 299.004 311.048C285.976 294.246 280.614 283.234 259.623 272.887C250.808 268.496 240.456 265.334 232.529 264.514L228.796 264.178L228.619 264.174L228.211 266.974C226.437 280.324 209.696 290.161 188.814 290.161C167.932 290.161 151.487 280.441 149.356 266.915C148.943 264.222 148.765 263.987 147.405 264.163H147.404Z" fill="#171717"/>
<path fill-rule="evenodd" clip-rule="evenodd" d="M158.229 240.371L157.982 240.294C157.307 240.082 160.621 238.57 161.795 238.008C165.246 236.359 169.747 236.696 175.374 239.058C177.546 239.698 180.474 240.13 183 241C188.565 242.967 190.479 242.149 195.5 240L205 235.5L209.5 232C215 221 219.549 226.851 223 228.5C226.451 230.149 230.63 230.742 231.5 231.5L225.5 236.5L218.5 240.5C208.428 248.177 175.687 251.743 158.229 240.371Z" fill="#2C1B18"/>
<path fill-rule="evenodd" clip-rule="evenodd" d="M218.271 239.904L218.518 239.826C219.193 239.614 215.879 238.102 214.705 237.541C211.254 235.892 206.753 236.229 201.126 238.59C198.954 239.23 196.026 239.662 193.5 240.532C187.935 242.499 186.021 241.682 181 239.532L171.5 235.032L167 231.532C161.5 220.532 156.951 226.383 153.5 228.032C150.049 229.681 145.37 230.242 144.5 231L146 232.5L148.5 234.5L150.5 236L152 237L153.5 238L154.5 238.5L156 239.5L160 241.5C170.5 248.5 200.813 251.275 218.271 239.904Z" fill="#2C1B18"/>
<path d="M131.5 202L133 210V212V214L133 218C131.005 214.674 129.325 211.145 128 207.5L125.5 202L124 196L123 192L122.5 188.5L127 197.5L131.5 202Z" fill="#2C1B18"/>
<path d="M251.5 196L252.5 188.5L249.5 197L245 201.5L243.5 209.5V211.5V213.5L243.5 217.5C245.495 214.174 247.175 210.645 248.5 207L250.5 201.5L251.5 196Z" fill="#2C1B18"/>
<path d="M217.08 317V302.08H217.1L224.68 312.84L223.86 312.68L231.42 302.08H231.46V317H229.54V306.48L229.66 307.46L224.2 315.18H224.16L218.62 307.46L218.96 306.56V317H217.08Z" fill="#8B65BF"/>
<path d="M244.52 302.54V317H242.6V310.66H235.02V317H233.08V302.54H235.02V308.82H242.6V302.54H244.52Z" fill="#8B65BF"/>
</g>
<path d="M140 111L141 104.5C143 102 147 96.9 147 96.5C147 96 161 91.5 163.5 90.5C166 89.5 187 90.5 191 90.5C194.2 90.5 195.667 92.5 196 93.5L192.5 94.5H185L179 95.5C175.667 97.1667 168.6 100.6 167 101C165.4 101.4 162.333 103.5 161 104.5L158.5 109.5L157.5 106.5L160 101L165 97L155.5 101L146 106.5L141 115C140.667 114.5 140 113.4 140 113V111Z" fill="#2C1B18"/>
<path d="M127 128.5L124.5 123.5L122 120L127 108L154.5 98.5L151 100.5L145.5 102.5C144 103.833 140.9 106.5 140.5 106.5C140.1 106.5 137 110.167 135.5 112L133 118V121.5L130.5 119.5L129 115.5L128.5 112.5L127 117.5L126.5 123.5L127 128.5Z" fill="#2C1B18"/>
<path d="M220.5 100L218 96L231.5 101L232 102.5V103V104.5C232 105 231.5 106 231.5 107V105.5L230.5 104.5L229.5 103L229 106.5L227 110.5C225.833 111 223.5 112.2 223.5 113C223.5 113.8 220.833 115 219.5 115.5C219.5 115.167 219.6 114.4 220 114C220.5 113.5 220.5 113 221 112C221.5 111 222 109.5 222 108.5V104.5C222 104.1 221 101.333 220.5 100Z" fill="#2C1B18"/>
<defs>
<filter id="filter0_d_5_132" x="248.786" y="130.002" width="136.789" height="136.789" filterUnits="userSpaceOnUse" color-interpolation-filters="sRGB">
<feFlood flood-opacity="0" result="BackgroundImageFix"/>
<feColorMatrix in="SourceAlpha" type="matrix" values="0 0 0 0 0 0 0 0 0 0 0 0 0 0 0 0 0 0 127 0" result="hardAlpha"/>
<feOffset dy="4"/>
<feGaussianBlur stdDeviation="25"/>
<feComposite in2="hardAlpha" operator="out"/>
<feColorMatrix type="matrix" values="0 0 0 0 0 0 0 0 0 0 0 0 0 0 0 0 0 0 0.5 0"/>
<feBlend mode="normal" in2="BackgroundImageFix" result="effect1_dropShadow_5_132"/>
<feBlend mode="normal" in="SourceGraphic" in2="effect1_dropShadow_5_132" result="shape"/>
</filter>
<filter id="filter1_d_5_132" x="212" y="39" width="136.789" height="136.789" filterUnits="userSpaceOnUse" color-interpolation-filters="sRGB">
<feFlood flood-opacity="0" result="BackgroundImageFix"/>
<feColorMatrix in="SourceAlpha" type="matrix" values="0 0 0 0 0 0 0 0 0 0 0 0 0 0 0 0 0 0 127 0" result="hardAlpha"/>
<feOffset dy="4"/>
<feGaussianBlur stdDeviation="25"/>
<feComposite in2="hardAlpha" operator="out"/>
<feColorMatrix type="matrix" values="0 0 0 0 0 0 0 0 0 0 0 0 0 0 0 0 0 0 0.5 0"/>
<feBlend mode="normal" in2="BackgroundImageFix" result="effect1_dropShadow_5_132"/>
<feBlend mode="normal" in="SourceGraphic" in2="effect1_dropShadow_5_132" result="shape"/>
</filter>
<filter id="filter2_d_5_132" x="0" y="83.0963" width="136.789" height="136.789" filterUnits="userSpaceOnUse" color-interpolation-filters="sRGB">
<feFlood flood-opacity="0" result="BackgroundImageFix"/>
<feColorMatrix in="SourceAlpha" type="matrix" values="0 0 0 0 0 0 0 0 0 0 0 0 0 0 0 0 0 0 127 0" result="hardAlpha"/>
<feOffset dy="4"/>
<feGaussianBlur stdDeviation="25"/>
<feComposite in2="hardAlpha" operator="out"/>
<feColorMatrix type="matrix" values="0 0 0 0 0 0 0 0 0 0 0 0 0 0 0 0 0 0 0.5 0"/>
<feBlend mode="normal" in2="BackgroundImageFix" result="effect1_dropShadow_5_132"/>
<feBlend mode="normal" in="SourceGraphic" in2="effect1_dropShadow_5_132" result="shape"/>
</filter>
<filter id="filter3_d_5_132" x="0" y="201" width="136.789" height="136.789" filterUnits="userSpaceOnUse" color-interpolation-filters="sRGB">
<feFlood flood-opacity="0" result="BackgroundImageFix"/>
<feColorMatrix in="SourceAlpha" type="matrix" values="0 0 0 0 0 0 0 0 0 0 0 0 0 0 0 0 0 0 127 0" result="hardAlpha"/>
<feOffset dy="4"/>
<feGaussianBlur stdDeviation="25"/>
<feComposite in2="hardAlpha" operator="out"/>
<feColorMatrix type="matrix" values="0 0 0 0 0 0 0 0 0 0 0 0 0 0 0 0 0 0 0.5 0"/>
<feBlend mode="normal" in2="BackgroundImageFix" result="effect1_dropShadow_5_132"/>
<feBlend mode="normal" in="SourceGraphic" in2="effect1_dropShadow_5_132" result="shape"/>
</filter>
<filter id="filter4_f_5_132" x="2.29932" y="0" width="362.122" height="362.122" filterUnits="userSpaceOnUse" color-interpolation-filters="sRGB">
<feFlood flood-opacity="0" result="BackgroundImageFix"/>
<feBlend mode="normal" in="SourceGraphic" in2="BackgroundImageFix" result="shape"/>
<feGaussianBlur stdDeviation="25" result="effect1_foregroundBlur_5_132"/>
</filter>
<filter id="filter5_i_5_132" x="78.0787" y="51.1871" width="220.926" height="311.013" filterUnits="userSpaceOnUse" color-interpolation-filters="sRGB">
<feFlood flood-opacity="0" result="BackgroundImageFix"/>
<feBlend mode="normal" in="SourceGraphic" in2="BackgroundImageFix" result="shape"/>
<feColorMatrix in="SourceAlpha" type="matrix" values="0 0 0 0 0 0 0 0 0 0 0 0 0 0 0 0 0 0 127 0" result="hardAlpha"/>
<feOffset dy="4"/>
<feGaussianBlur stdDeviation="2"/>
<feComposite in2="hardAlpha" operator="arithmetic" k2="-1" k3="1"/>
<feColorMatrix type="matrix" values="0 0 0 0 0 0 0 0 0 0 0 0 0 0 0 0 0 0 0.25 0"/>
<feBlend mode="normal" in2="shape" result="effect1_innerShadow_5_132"/>
</filter>
<clipPath id="clip0_5_132">
<rect width="18.3945" height="18.3945" fill="white" transform="translate(307.983 185.2)"/>
</clipPath>
</defs>
</svg>
