<svg width="33" height="9" viewBox="0 0 33 9" fill="none" xmlns="http://www.w3.org/2000/svg">
<g clip-path="url(#clip0_13_10)">
<path d="M21.9374 0.00372314H27.6854V1.42875H25.4052V8.92564H24.265V1.42875H21.9374V0.00372314Z" fill="white"/>
<path d="M12.4841 0.00372314V1.42875H7.87662V3.72119H11.5819V5.14621H7.87662V7.50061H12.4841V8.92564H6.73652V1.42875H6.73605V0.00372314H12.4841Z" fill="white"/>
<path d="M15.3542 0.00744629H13.8622L19.2063 8.92937H20.7027L18.0303 4.47147L20.6985 0.0142531L19.2063 0.0173503L17.2833 3.22535L15.3542 0.00744629Z" fill="white"/>
<path d="M16.8853 6.38041L16.1381 5.13257L13.8579 8.93616H15.3542L16.8853 6.38041Z" fill="white"/>
<path fill-rule="evenodd" clip-rule="evenodd" d="M6.77647 8.92564L1.42512 0H0V8.92191H1.1401V1.90706L5.34422 8.92564H6.77647Z" fill="white"/>
<path d="M27.9417 8.87115C27.8582 8.87115 27.7872 8.8323 27.7277 8.7546C27.6682 8.6769 27.6388 8.58282 27.6396 8.47138C27.6388 8.363 27.6682 8.26995 27.7277 8.19225C27.7872 8.11454 27.8582 8.07568 27.9417 8.07568C28.022 8.07568 28.0923 8.11454 28.1518 8.19225C28.2121 8.26995 28.2421 8.363 28.243 8.47138C28.2421 8.54499 28.2282 8.61247 28.2004 8.67279C28.1719 8.73415 28.1356 8.78221 28.09 8.81697C28.0451 8.85276 27.9957 8.87115 27.9417 8.87115Z" fill="white"/>
<path d="M29.8876 5.11259H30.3928V7.72702C30.3921 7.96729 30.3534 8.17281 30.2777 8.34561C30.2013 8.5184 30.0954 8.65028 29.9595 8.74333C29.8243 8.83534 29.6659 8.88239 29.4859 8.88239C29.3213 8.88239 29.1738 8.84251 29.0425 8.76481C28.9112 8.6871 28.8069 8.57054 28.7304 8.41717C28.6531 8.2638 28.6153 8.0726 28.6153 7.84358H29.1213C29.1221 7.94378 29.1391 8.03068 29.1715 8.10327C29.2039 8.17587 29.2487 8.23107 29.3059 8.26993C29.3638 8.30879 29.4303 8.32822 29.5052 8.32822C29.5863 8.32822 29.6559 8.30572 29.7122 8.2597C29.7686 8.21471 29.8119 8.14724 29.842 8.05726C29.8714 7.96832 29.8869 7.85789 29.8876 7.72702V5.11259Z" fill="white"/>
<path d="M32.4716 6.13505C32.4593 5.97657 32.4052 5.85286 32.3109 5.76493C32.2159 5.67597 32.0931 5.63201 31.9424 5.63201C31.8366 5.63201 31.7455 5.65349 31.6698 5.6954C31.5941 5.73834 31.5354 5.7956 31.4952 5.86819C31.455 5.94079 31.4349 6.02361 31.4333 6.11666C31.4333 6.19436 31.4472 6.26184 31.4743 6.31808C31.5014 6.37533 31.5376 6.42339 31.5848 6.46225C31.6311 6.50212 31.6829 6.53483 31.7393 6.56142C31.7964 6.588 31.8536 6.6105 31.9108 6.6289L32.1742 6.71581C32.28 6.74853 32.3828 6.7925 32.4809 6.84873C32.579 6.90395 32.6678 6.97449 32.7458 7.05935C32.8239 7.14422 32.8857 7.24646 32.9312 7.3661C32.9768 7.48572 33 7.62579 33 7.78734C33 8.00512 32.9583 8.19632 32.874 8.36196C32.7899 8.52657 32.6686 8.6554 32.5094 8.74845C32.3511 8.84048 32.1595 8.8875 31.934 8.8875C31.7161 8.8875 31.5261 8.84252 31.3662 8.75255C31.2055 8.66359 31.0803 8.53271 30.9899 8.36093C30.8996 8.18917 30.8509 7.97956 30.8439 7.73315H31.3446C31.3515 7.86197 31.3824 7.96934 31.4349 8.05625C31.4882 8.14213 31.5577 8.20553 31.6427 8.24847C31.7285 8.29038 31.8242 8.31186 31.9301 8.31186C32.0406 8.31186 32.1379 8.28936 32.2221 8.24539C32.3055 8.20143 32.3712 8.14009 32.4183 8.06034C32.4662 7.98161 32.4902 7.88857 32.4909 7.78223C32.4902 7.6851 32.4685 7.60431 32.4268 7.54092C32.3843 7.47754 32.3256 7.42437 32.2506 7.38143C32.175 7.33849 32.0869 7.29963 31.9865 7.26589L31.6667 7.15751C31.4357 7.07878 31.2526 6.95916 31.1189 6.79863C30.9846 6.63811 30.9181 6.42544 30.9181 6.15858C30.9181 5.93978 30.9629 5.74756 31.0533 5.58294C31.1429 5.41833 31.2657 5.29051 31.421 5.19951C31.5771 5.1075 31.7532 5.0625 31.9494 5.0625C32.1487 5.0625 32.3233 5.1075 32.4739 5.19951C32.6245 5.29051 32.7428 5.4173 32.8285 5.57884C32.9142 5.74039 32.959 5.92545 32.9614 6.13505H32.4716Z" fill="white"/>
</g>
<defs>
<clipPath id="clip0_13_10">
<rect width="33" height="9" fill="white"/>
</clipPath>
</defs>
</svg>
