<svg width="23" height="23" viewBox="0 0 23 23" fill="none" xmlns="http://www.w3.org/2000/svg">
<path d="M11.5126 13.0703C12.5946 13.0703 13.4718 12.1932 13.4718 11.1111C13.4718 10.0291 12.5946 9.15198 11.5126 9.15198C10.4306 9.15198 9.55343 10.0291 9.55343 11.1111C9.55343 12.1932 10.4306 13.0703 11.5126 13.0703Z" fill="#61DAFB"/>
<path d="M11.5126 15.125C17.3185 15.125 22.0252 13.3279 22.0252 11.1111C22.0252 8.8943 17.3185 7.09721 11.5126 7.09721C5.70664 7.09721 1 8.8943 1 11.1111C1 13.3279 5.70664 15.125 11.5126 15.125Z" stroke="#61DAFB" stroke-width="1.5"/>
<path d="M8.03644 13.1181C10.9394 18.1461 14.849 21.3237 16.7689 20.2153C18.6887 19.1069 17.8917 14.1323 14.9887 9.10416C12.0857 4.07607 8.1761 0.898541 6.25628 2.00695C4.33646 3.11535 5.13347 8.08997 8.03644 13.1181Z" stroke="#61DAFB" stroke-width="1.5"/>
<path d="M8.03644 9.10415C5.13347 14.1322 4.33647 19.1069 6.25629 20.2153C8.1761 21.3237 12.0857 18.1461 14.9887 13.118C17.8917 8.08996 18.6887 3.11534 16.7689 2.00694C14.8491 0.898531 10.9394 4.07606 8.03644 9.10415Z" stroke="#61DAFB" stroke-width="1.5"/>
</svg>
