<svg width="24" height="14" viewBox="0 0 24 14" fill="none" xmlns="http://www.w3.org/2000/svg">
<path d="M12 0.335144C9.03695 0.335144 7.18514 1.81625 6.44431 4.77819C7.55556 3.29708 8.85188 2.74188 10.3333 3.11201C11.1786 3.3232 11.7827 3.93649 12.4516 4.61507C13.5409 5.72049 14.8016 6.99985 17.5557 6.99985C20.5185 6.99985 22.3706 5.51875 23.1111 2.55653C22.0001 4.03764 20.7038 4.59312 19.2222 4.22298C18.3771 4.01179 17.773 3.39851 17.1041 2.71992C16.0148 1.61451 14.7538 0.335144 12 0.335144ZM6.44431 6.99985C3.48153 6.99985 1.62945 8.48096 0.888892 11.4432C1.99986 9.96207 3.29618 9.40659 4.77785 9.777C5.62289 9.98847 6.22701 10.6015 6.89587 11.2798C7.98517 12.3852 9.24619 13.6648 12 13.6648C14.9631 13.6648 16.8149 12.1837 17.5557 9.22152C16.4444 10.7026 15.1481 11.2581 13.6667 10.8877C12.8214 10.6768 12.2173 10.0632 11.5484 9.38491C10.4591 8.2795 9.1984 6.99985 6.44431 6.99985Z" fill="#06B6D4"/>
</svg>
