<svg width="24" height="24" viewBox="0 0 24 24" fill="none" xmlns="http://www.w3.org/2000/svg">
<path d="M0.888885 0.888885H23.1111V23.1111H0.888885V0.888885Z" fill="#017ACB"/>
<path d="M11.559 9.11805H12.625V10.9583H9.74306V19.1458L9.66667 19.1667C9.5625 19.1944 8.19097 19.1944 7.89583 19.1632L7.65972 19.1424V10.9583H4.77777V9.11805L5.69097 9.10764C6.19097 9.10069 7.47569 9.10069 8.54514 9.10764C9.61458 9.11458 10.9688 9.11805 11.559 9.11805ZM19.6945 18.2778C19.2709 18.7257 18.816 18.9757 18.059 19.1806C17.7292 19.2708 17.6736 19.2743 16.9306 19.2708C16.1875 19.2674 16.1285 19.2674 15.7674 19.1736C14.8333 18.934 14.0799 18.4653 13.566 17.8021C13.4201 17.6146 13.1806 17.2257 13.1806 17.1771C13.1806 17.1632 13.2153 17.1319 13.2604 17.1111C13.3056 17.0903 13.3993 17.0312 13.4757 16.9861C13.5521 16.941 13.691 16.8576 13.7847 16.809C13.8785 16.7604 14.1493 16.6007 14.3854 16.4583C14.6215 16.316 14.8368 16.2014 14.8611 16.2014C14.8854 16.2014 14.9306 16.25 14.9653 16.309C15.1736 16.6597 15.6597 17.1076 16.0035 17.2604C16.2153 17.3507 16.684 17.4514 16.9097 17.4514C17.1181 17.4514 17.5 17.3611 17.7049 17.2674C17.9236 17.1667 18.0347 17.066 18.1667 16.8646C18.257 16.7222 18.2674 16.684 18.2639 16.4132C18.2639 16.1632 18.25 16.0937 18.1806 15.9792C17.9861 15.6597 17.7222 15.4931 16.6528 15.0208C15.5486 14.5312 15.0521 14.2396 14.6493 13.8472C14.3507 13.5556 14.2917 13.4757 14.1042 13.1111C13.8611 12.6424 13.8299 12.4896 13.8264 11.7917C13.8229 11.3021 13.8333 11.1424 13.8854 10.9757C13.9583 10.7257 14.1945 10.2431 14.3021 10.1215C14.5243 9.86111 14.6042 9.78125 14.7604 9.65277C15.2327 9.26389 15.9688 9.00694 16.6736 8.98264C16.7535 8.98264 17.0174 8.99652 17.2639 9.01389C17.9722 9.07291 18.4549 9.24652 18.9202 9.61805C19.2709 9.89583 19.8021 10.5486 19.75 10.6354C19.7153 10.6875 18.3299 11.6111 18.2396 11.6389C18.184 11.6562 18.1459 11.6354 18.0695 11.5451C17.5972 10.9792 17.4063 10.8576 16.9479 10.8299C16.6215 10.809 16.4479 10.8472 16.2292 10.9931C16 11.1458 15.8889 11.3785 15.8889 11.7014C15.8924 12.1736 16.0729 12.3958 16.7396 12.7257C17.1702 12.9375 17.5382 13.1111 17.566 13.1111C17.6077 13.1111 18.5 13.5556 18.7327 13.6944C19.816 14.3299 20.257 14.9826 20.3715 16.1076C20.4549 16.9549 20.2153 17.7292 19.6945 18.2778Z" fill="white"/>
</svg>
